<?xml version="1.0" standalone="no"?>
<!DOCTYPE svg PUBLIC "-//W3C//DTD SVG 20010904//EN"
 "http://www.w3.org/TR/2001/REC-SVG-20010904/DTD/svg10.dtd">
<svg version="1.0" xmlns="http://www.w3.org/2000/svg"
 width="256.000000pt" height="256.000000pt" viewBox="0 0 256.000000 256.000000"
 preserveAspectRatio="xMidYMid meet">

<g transform="translate(0.000000,256.000000) scale(0.100000,-0.100000)"
fill="#000000" stroke="none">
<path d="M600 1285 l0 -665 85 0 85 0 2 492 3 491 220 -491 219 -492 61 0 61
0 220 492 219 492 3 -492 2 -492 85 0 85 0 0 665 0 666 -92 -3 -92 -3 -241
-538 c-133 -296 -245 -539 -249 -540 -4 -1 -117 241 -249 538 l-242 540 -93 3
-92 3 0 -666z"/>
</g>
</svg>
